<?xml version="1.0" encoding="UTF-8"?>
<svg xmlns="http://www.w3.org/2000/svg" viewBox="0 0 1048 1040" width="1048" height="1040" style="background: transparent;">

<path d="M517.62 14.27C520.81 13.71 524.27 13.67 527.5 14.03C550.71 16.63 553 41.08 553.13 59.5C553.5 114.52 552.02 169.5 551.06 224.5C550.71 244.33 554.11 279.82 525.5 280.85C496.94 281.87 496.52 250.04 496.05 229.5C494.82 175.18 492.86 120.85 492.99 66.5C493.04 47.36 493.64 18.47 517.62 14.27ZM1005.66 276.39C1027.67 274.08 1046.36 299.31 1034.87 319.34C1031.43 325.35 1025.98 329.83 1021.1 334.62C1010.49 345.01 999.45 354.95 988.59 365.08C957.56 394.02 927.09 423.7 895.36 451.89C890.67 456.06 886 461.01 880.33 463.84C868.98 469.51 851.53 469.57 841.65 460.88C838.01 457.68 835.85 453.26 834.73 448.62C830.82 432.37 839.69 419.01 850.72 408.2C884.77 374.86 920.86 343.65 956.04 311.53C962.14 305.96 968.31 300.48 974.43 294.94C983.79 286.46 992.4 277.78 1005.66 276.39ZM32.64 277.32C55.33 273.91 69.99 293.98 85.21 307.29C123 340.33 160.9 373.61 197.3 408.18C209.82 420.07 218.15 443.16 203.61 457.1C199.22 461.31 193.55 463.77 187.5 464.22C171.21 465.43 160.23 454.49 148.8 444.68C117.65 417.95 87.32 390.14 56.83 362.65C47.37 354.12 37.71 345.78 28.39 337.09C23.54 332.58 18.38 328.39 14.58 322.9C2.92 306.07 11.39 280.52 32.64 277.32ZM616.5 593.49C637.17 595.22 660.54 594.12 681.5 594.28C723.17 594.59 764.83 595 806.5 595.39C821.67 595.53 837.84 595.23 852.68 598.68C859.19 600.19 866.16 602.96 868.74 609.72C871.68 617.39 868.8 625.4 864.08 631.62C855.26 643.27 841.35 651.58 829.85 660.38C796.66 685.77 763.92 711.72 731.32 737.86C714.6 751.26 697.28 764.24 681.28 778.5C682.34 786.01 685.52 793.48 687.61 800.79C690.93 812.42 694.41 824.01 697.77 835.63C709.66 876.86 722.69 917.75 734.52 958.99C738.65 973.4 744.15 989.33 743.42 1004.5C743.09 1011.3 741.11 1019.55 734.72 1023.24C728.68 1026.73 720.67 1025.49 714.48 1023.09C702.46 1018.44 685.64 1005.53 674.54 997.98C640.03 974.51 605.6 950.95 571.15 927.38C561.08 920.48 551.14 913.39 541.13 906.4C535.57 902.52 529.79 897.37 523.5 894.89C518.03 897.88 513.05 901.91 507.87 905.39C493.57 915.02 479.42 924.91 465.32 934.84C433.53 957.23 401 978.58 368.75 1000.28C357.37 1007.93 342.4 1020 329.51 1024.04C323.43 1025.95 315.49 1026.49 310.15 1022.37C304.6 1018.08 303.08 1010.13 303.24 1003.5C303.62 988.28 308.64 972.96 312.82 958.44C323.66 920.77 335.17 883.28 346.25 845.66C350.48 831.33 355.02 817.07 359.33 802.75C361.64 795.08 364.66 787.36 366.12 779.5C361.59 774.24 355.04 770.29 349.64 765.91C340.05 758.14 330.43 750.42 320.72 742.8C286.52 715.98 250.93 690.74 217.41 663.07C206.24 653.85 193.08 644.88 184.36 633.18C179.45 626.58 176.36 618.95 179.38 610.81C181.88 604.03 188.7 600.45 195.28 598.68C210.51 594.58 227.04 595.9 242.66 595.48C286.23 594.3 329.91 594.52 373.5 594.16C386.5 594.06 399.5 593.99 412.5 593.81C418.48 593.73 425.91 594.83 431.5 592.81C440.95 569.48 448.3 544.59 456.22 520.67C467.45 486.76 478.91 452.93 490.59 419.16C495.25 405.68 498.98 390.59 507.35 378.82C511.28 373.29 517.23 368.09 524.45 368.38C531.54 368.66 537.07 374.21 540.88 379.66C549.21 391.56 552.87 407.55 557.39 421.19C569.37 457.4 582.08 493.4 593.71 529.73C598.1 543.47 602.93 557.07 607.79 570.66C610.47 578.16 612.59 586.56 616.5 593.49Z" fill="#DE9C2E" fill-rule="evenodd" stroke="#DE9C2E" stroke-width="0.25" stroke-linejoin="round" data-darkreader-inline-fill="" data-darkreader-inline-stroke="" style="--darkreader-inline-fill: var(--darkreader-background-da9836, #a46e1e); --darkreader-inline-stroke: var(--darkreader-text-da9836, #dda147);" data-index="1"/>
</svg>